<?xml version="1.0" encoding="utf-8"?>
<!-- Generator: Adobe Illustrator 17.0.0, SVG Export Plug-In . SVG Version: 6.00 Build 0)  -->
<!DOCTYPE svg PUBLIC "-//W3C//DTD SVG 1.1//EN" "http://www.w3.org/Graphics/SVG/1.1/DTD/svg11.dtd">
<svg version="1.1"
	 id="svg3406" xmlns:rdf="http://www.w3.org/1999/02/22-rdf-syntax-ns#" xmlns:dc="http://purl.org/dc/elements/1.1/" xmlns:cc="http://creativecommons.org/ns#" xmlns:svg="http://www.w3.org/2000/svg"
	 xmlns="http://www.w3.org/2000/svg" xmlns:xlink="http://www.w3.org/1999/xlink" x="0px" y="0px" width="260.411px"
	 height="63.242px" viewBox="0 43.443 260.411 63.242" enable-background="new 0 43.443 260.411 63.242" xml:space="preserve">
<g>
	<polygon fill="#00BFF3" points="9.377,61.027 13.621,65.3 13.621,54.345 22.308,61.468 22.308,78.714 22.631,79.021 9.377,67.727 
		9.377,67.806 1.721,61.556 0,60.343 0,91.014 18.656,106.685 18.656,88.998 13.621,84.718 13.621,95.784 5.034,88.661 
		5.034,71.229 5.496,71.305 18.656,82.362 18.656,82.323 21.091,84.447 27.342,89.702 27.342,59.115 9.377,43.443 	"/>
	<polygon fill="#FFFFFF" points="54.873,79.783 45.734,67.742 41.779,67.742 41.779,87.297 46.013,87.297 46.013,74.865 
		55.458,87.297 59.107,87.297 59.107,67.742 54.873,67.742 	"/>
	<path fill="#FFFFFF" d="M94.852,78.945c0,1.564-0.372,2.737-1.114,3.52c-0.743,0.782-1.774,1.173-3.093,1.173
		c-1.319,0-2.349-0.405-3.093-1.215c-0.743-0.81-1.114-2.016-1.114-3.619V67.742h-4.291v11.175c0,2.885,0.752,5.055,2.257,6.508
		c1.504,1.453,3.566,2.178,6.184,2.178c1.3,0,2.48-0.181,3.538-0.545c1.059-0.362,1.959-0.912,2.703-1.647
		c0.743-0.735,1.313-1.652,1.713-2.752c0.399-1.1,0.599-2.394,0.599-3.883V67.742h-4.291V78.945z"/>
	<g>
		<path fill="#FFFFFF" d="M118.63,78.12c0.771-0.996,1.157-2.286,1.157-3.87v-0.055c0-1.862-0.558-3.353-1.672-4.47
			c-1.318-1.322-3.213-1.984-5.682-1.984h-8.916v19.555h4.29V81.04h3.372l4.179,6.257h5.015l-4.764-6.984
			C116.852,79.847,117.859,79.116,118.63,78.12z M115.44,74.474c0,0.838-0.283,1.509-0.849,2.011
			c-0.566,0.503-1.379,0.755-2.438,0.755h-4.346v-5.616h4.263c1.058,0,1.885,0.233,2.48,0.698c0.594,0.466,0.891,1.165,0.891,2.096
			V74.474z"/>
		<path fill="#FFFFFF" d="M140.612,70.354c-0.919-0.903-2.011-1.619-3.273-2.151c-1.264-0.531-2.647-0.796-4.152-0.796
			c-1.504,0-2.893,0.265-4.165,0.796c-1.272,0.532-2.368,1.257-3.287,2.179c-0.919,0.922-1.64,1.993-2.16,3.213
			c-0.52,1.22-0.78,2.528-0.78,3.925v0.055c0,1.397,0.255,2.706,0.766,3.925c0.511,1.219,1.226,2.282,2.145,3.185
			c0.92,0.904,2.01,1.621,3.274,2.152c1.263,0.53,2.647,0.795,4.151,0.795c1.505,0,2.894-0.265,4.166-0.795
			c1.272-0.531,2.368-1.257,3.287-2.18c0.92-0.922,1.638-1.993,2.159-3.213c0.52-1.219,0.781-2.527,0.781-3.924v-0.055
			c0-1.398-0.255-2.706-0.766-3.926C142.246,72.319,141.531,71.258,140.612,70.354z M139.038,77.575c0,0.838-0.144,1.625-0.432,2.36
			c-0.289,0.737-0.688,1.384-1.198,1.943c-0.511,0.558-1.128,0.997-1.854,1.313c-0.724,0.316-1.513,0.474-2.368,0.474
			c-0.873,0-1.668-0.162-2.382-0.489c-0.716-0.325-1.338-0.769-1.867-1.328c-0.529-0.558-0.937-1.21-1.226-1.954
			c-0.288-0.745-0.432-1.538-0.432-2.375v-0.055c0-0.838,0.144-1.626,0.432-2.362c0.288-0.735,0.686-1.382,1.198-1.941
			c0.511-0.559,1.123-0.997,1.839-1.313c0.715-0.317,1.508-0.475,2.382-0.475c0.854,0,1.645,0.164,2.368,0.489
			c0.724,0.327,1.352,0.769,1.88,1.327c0.53,0.559,0.937,1.211,1.226,1.956c0.288,0.745,0.432,1.536,0.432,2.375V77.575z"/>
		<polygon fill="#FFFFFF" points="157.09,76.011 151.965,67.742 147.34,67.742 147.34,87.297 151.575,87.297 151.575,74.614 
			157.008,82.883 157.119,82.883 162.607,74.531 162.607,87.297 166.842,87.297 166.842,67.742 162.218,67.742 		"/>
		<path fill="#FFFFFF" d="M178.208,67.602l-8.358,19.695h4.375l1.783-4.386h8.246l1.783,4.386h4.485l-8.358-19.695H178.208z
			 M177.54,79.112l2.59-6.342l2.591,6.342H177.54z"/>
		<polygon fill="#FFFFFF" points="190.594,71.709 196.528,71.709 196.528,87.297 200.819,87.297 200.819,71.709 206.753,71.709 
			206.753,67.742 190.594,67.742 		"/>
		<rect x="210.234" y="67.742" fill="#FFFFFF" width="4.291" height="19.555"/>
		<path fill="#FFFFFF" d="M236.353,70.354c-0.918-0.903-2.011-1.619-3.272-2.151c-1.264-0.531-2.647-0.796-4.151-0.796
			c-1.505,0-2.894,0.265-4.166,0.796c-1.273,0.532-2.368,1.257-3.288,2.179c-0.919,0.922-1.638,1.993-2.158,3.213
			c-0.521,1.22-0.781,2.528-0.781,3.925v0.055c0,1.397,0.255,2.706,0.766,3.925c0.51,1.219,1.227,2.282,2.145,3.185
			c0.92,0.904,2.011,1.621,3.275,2.152c1.262,0.53,2.646,0.795,4.15,0.795c1.504,0,2.892-0.265,4.165-0.795
			c1.273-0.531,2.368-1.257,3.287-2.18c0.92-0.922,1.638-1.993,2.159-3.213c0.521-1.219,0.781-2.527,0.781-3.924v-0.055
			c0-1.398-0.255-2.706-0.766-3.926C237.987,72.319,237.273,71.258,236.353,70.354z M234.779,77.575c0,0.838-0.144,1.625-0.431,2.36
			c-0.288,0.737-0.688,1.384-1.198,1.943c-0.512,0.558-1.13,0.997-1.854,1.313c-0.724,0.316-1.514,0.474-2.367,0.474
			c-0.874,0-1.668-0.162-2.382-0.489c-0.716-0.325-1.337-0.769-1.868-1.328c-0.529-0.558-0.938-1.21-1.225-1.954
			c-0.289-0.745-0.431-1.538-0.431-2.375v-0.055c0-0.838,0.142-1.626,0.431-2.362c0.288-0.735,0.687-1.382,1.198-1.941
			c0.51-0.559,1.123-0.997,1.839-1.313c0.714-0.317,1.509-0.475,2.382-0.475c0.854,0,1.644,0.164,2.369,0.489
			c0.723,0.327,1.351,0.769,1.881,1.327c0.529,0.559,0.937,1.211,1.225,1.956c0.288,0.745,0.431,1.536,0.431,2.375V77.575z"/>
		<polygon fill="#FFFFFF" points="256.177,67.742 256.177,79.783 247.038,67.742 243.082,67.742 243.082,87.297 247.317,87.297 
			247.317,74.865 256.762,87.297 260.411,87.297 260.411,67.742 		"/>
	</g>
	<rect x="63.963" y="67.772" fill="#FFFFFF" width="15.102" height="3.662"/>
	<rect x="63.963" y="75.393" fill="#FFFFFF" width="15.102" height="3.563"/>
	<rect x="63.963" y="82.915" fill="#FFFFFF" width="15.102" height="3.662"/>
</g>
</svg>
